<mxfile host="app.diagrams.net" agent="Mozilla/5.0 (Macintosh; Intel Mac OS X 10_15_7) AppleWebKit/537.36 (KHTML, like Gecko) Chrome/128.0.0.0 Safari/537.36" version="24.7.12">
  <diagram name="Page-1" id="XVTx3rcIbUVxM4PnioQ9">
    <mxGraphModel dx="1242" dy="710" grid="1" gridSize="10" guides="1" tooltips="1" connect="1" arrows="1" fold="1" page="1" pageScale="1" pageWidth="850" pageHeight="1100" math="0" shadow="0">
      <root>
        <mxCell id="0" />
        <mxCell id="1" parent="0" />
        <mxCell id="TGgLuWAzMGpuuqjcX73d-12" style="edgeStyle=orthogonalEdgeStyle;rounded=0;orthogonalLoop=1;jettySize=auto;html=1;entryX=0.5;entryY=0;entryDx=0;entryDy=0;" edge="1" parent="1" source="TGgLuWAzMGpuuqjcX73d-2" target="TGgLuWAzMGpuuqjcX73d-4">
          <mxGeometry relative="1" as="geometry" />
        </mxCell>
        <mxCell id="TGgLuWAzMGpuuqjcX73d-2" value="ChatView&lt;div&gt;(SwiftUI)&lt;/div&gt;" style="rounded=1;whiteSpace=wrap;html=1;" vertex="1" parent="1">
          <mxGeometry x="220" y="90" width="120" height="60" as="geometry" />
        </mxCell>
        <mxCell id="TGgLuWAzMGpuuqjcX73d-13" style="edgeStyle=orthogonalEdgeStyle;rounded=0;orthogonalLoop=1;jettySize=auto;html=1;entryX=0.5;entryY=0;entryDx=0;entryDy=0;" edge="1" parent="1" source="TGgLuWAzMGpuuqjcX73d-3" target="TGgLuWAzMGpuuqjcX73d-4">
          <mxGeometry relative="1" as="geometry" />
        </mxCell>
        <mxCell id="TGgLuWAzMGpuuqjcX73d-3" value="ChatView&lt;div&gt;(WinUI3&lt;span style=&quot;background-color: initial;&quot;&gt;)&lt;/span&gt;&lt;/div&gt;" style="rounded=1;whiteSpace=wrap;html=1;" vertex="1" parent="1">
          <mxGeometry x="380" y="90" width="120" height="60" as="geometry" />
        </mxCell>
        <mxCell id="TGgLuWAzMGpuuqjcX73d-14" style="edgeStyle=orthogonalEdgeStyle;rounded=0;orthogonalLoop=1;jettySize=auto;html=1;entryX=0.5;entryY=0;entryDx=0;entryDy=0;" edge="1" parent="1" source="TGgLuWAzMGpuuqjcX73d-4" target="TGgLuWAzMGpuuqjcX73d-5">
          <mxGeometry relative="1" as="geometry" />
        </mxCell>
        <mxCell id="TGgLuWAzMGpuuqjcX73d-16" style="edgeStyle=orthogonalEdgeStyle;rounded=0;orthogonalLoop=1;jettySize=auto;html=1;entryX=0.5;entryY=0;entryDx=0;entryDy=0;dashed=1;" edge="1" parent="1" source="TGgLuWAzMGpuuqjcX73d-4" target="TGgLuWAzMGpuuqjcX73d-9">
          <mxGeometry relative="1" as="geometry" />
        </mxCell>
        <mxCell id="TGgLuWAzMGpuuqjcX73d-4" value="ChatViewModel&lt;div&gt;(@Observable class)&lt;/div&gt;" style="rounded=1;whiteSpace=wrap;html=1;" vertex="1" parent="1">
          <mxGeometry x="300" y="190" width="120" height="60" as="geometry" />
        </mxCell>
        <mxCell id="TGgLuWAzMGpuuqjcX73d-15" style="edgeStyle=orthogonalEdgeStyle;rounded=0;orthogonalLoop=1;jettySize=auto;html=1;entryX=0.5;entryY=1;entryDx=0;entryDy=0;dashed=1;" edge="1" parent="1" source="TGgLuWAzMGpuuqjcX73d-5" target="TGgLuWAzMGpuuqjcX73d-9">
          <mxGeometry relative="1" as="geometry" />
        </mxCell>
        <mxCell id="TGgLuWAzMGpuuqjcX73d-5" value="ModelService&lt;div&gt;(actor)&lt;/div&gt;" style="rounded=1;whiteSpace=wrap;html=1;" vertex="1" parent="1">
          <mxGeometry x="300" y="300" width="120" height="60" as="geometry" />
        </mxCell>
        <mxCell id="TGgLuWAzMGpuuqjcX73d-6" value="" style="endArrow=none;html=1;rounded=0;" edge="1" parent="1">
          <mxGeometry width="50" height="50" relative="1" as="geometry">
            <mxPoint x="160" y="280" as="sourcePoint" />
            <mxPoint x="640" y="280" as="targetPoint" />
          </mxGeometry>
        </mxCell>
        <mxCell id="TGgLuWAzMGpuuqjcX73d-7" value="Main Actor" style="text;html=1;align=center;verticalAlign=middle;whiteSpace=wrap;rounded=0;" vertex="1" parent="1">
          <mxGeometry x="160" y="240" width="60" height="30" as="geometry" />
        </mxCell>
        <mxCell id="TGgLuWAzMGpuuqjcX73d-9" value="ChatMessage&lt;div&gt;(@Sendable struct)&lt;/div&gt;" style="rounded=1;whiteSpace=wrap;html=1;" vertex="1" parent="1">
          <mxGeometry x="460" y="250" width="120" height="60" as="geometry" />
        </mxCell>
      </root>
    </mxGraphModel>
  </diagram>
</mxfile>
